<svg xmlns="http://www.w3.org/2000/svg" viewBox="0 0 24 24" fill="none"><path d="m10.05 10.607-7.071 7.071a2 2 0 1 0 2.829 2.828l7.07-7.071" stroke="#fff" stroke-width="1.25" stroke-linecap="round" stroke-linejoin="round"/><path d="m17.193 13.799 3.878 3.879a2 2 0 1 1-2.828 2.828l-6.209-6.208" stroke="#fff" stroke-width="1.25" stroke-linecap="round" stroke-linejoin="round"/><path d="m6.733 5.904-2.122.707-2.121-3.536 1.414-1.414L7.44 3.782l-.707 2.122Zm0 0 2.83 2.83" stroke="#fff" stroke-width="1.25" stroke-linecap="round" stroke-linejoin="round"/><path d="M10.05 10.607c-.844-2.153-.679-4.978 1.061-6.718 1.74-1.739 4.95-2.121 6.718-1.06l-3.041 3.04-.283 3.111 3.111-.282 3.041-3.041c1.061 1.768.679 4.978-1.061 6.717-1.739 1.74-4.564 1.905-6.717 1.061" stroke="#fff" stroke-width="1.25" stroke-linecap="round" stroke-linejoin="round"/></svg>
